<svg width="20" height="20" viewBox="0 0 20 20" fill="none" xmlns="http://www.w3.org/2000/svg">
<path d="M13.3333 10C13.3333 9.11595 12.9821 8.2681 12.357 7.64298C11.7319 7.01786 10.8841 6.66667 10 6.66667C9.11595 6.66667 8.2681 7.01786 7.64298 7.64298C7.01786 8.2681 6.66667 9.11595 6.66667 10C6.66667 10.8841 7.01786 11.7319 7.64298 12.357C8.2681 12.9821 9.11595 13.3333 10 13.3333C10.8841 13.3333 11.7319 12.9821 12.357 12.357C12.9821 11.7319 13.3333 10.8841 13.3333 10ZM13.3333 10V11.25C13.3333 11.8025 13.5528 12.3324 13.9435 12.7231C14.3342 13.1138 14.8641 13.3333 15.4167 13.3333C15.9692 13.3333 16.4991 13.1138 16.8898 12.7231C17.2805 12.3324 17.5 11.8025 17.5 11.25V10C17.5 8.51664 17.0601 7.0666 16.236 5.83323C15.4119 4.59986 14.2406 3.63856 12.8701 3.07091C11.4997 2.50325 9.99168 2.35472 8.53683 2.64411C7.08197 2.9335 5.7456 3.64781 4.6967 4.6967C3.64781 5.7456 2.9335 7.08197 2.64411 8.53683C2.35472 9.99168 2.50325 11.4997 3.07091 12.8701C3.63856 14.2406 4.59986 15.4119 5.83323 16.236C7.0666 17.0601 8.51664 17.5 10 17.5C11.3168 17.5013 12.6106 17.1551 13.75 16.495" stroke="black" stroke-width="2" stroke-linecap="round" stroke-linejoin="round"/>
</svg>
